HIERARCHY
ROOT Root
{
  OFFSET 0.0 0.0 0.0
  CHANNELS 6 Xposition Yposition Zposition Zrotation Yrotation Xrotation
  JOINT Hips
  {
    OFFSET 0.0 100.0 0.0
    CHANNELS 6 Xposition Yposition Zposition Zrotation Yrotation Xrotation
    JOINT Spine1
    {
      OFFSET -0.013727 5.003763 -0.053727
      CHANNELS 3 Zrotation Yrotation Xrotation
      JOINT Spine2
      {
        OFFSET -0.0 7.125301 -0.029825
        CHANNELS 3 Zrotation Yrotation Xrotation
        JOINT Chest
        {
          OFFSET -1e-06 7.550063 -0.815971
          CHANNELS 3 Zrotation Yrotation Xrotation
          JOINT Neck1
          {
            OFFSET -0.181677 26.311295 -0.553348
            CHANNELS 3 Zrotation Yrotation Xrotation
            JOINT Neck2
            {
              OFFSET -3e-06 7.709397 2.302585
              CHANNELS 3 Zrotation Yrotation Xrotation
              JOINT Head
              {
                OFFSET -5e-06 6.128916 1.953709
                CHANNELS 3 Zrotation Yrotation Xrotation
                JOINT HeadEnd
                {
                  OFFSET 0.003598 16.065403 -1.835379
                  CHANNELS 3 Zrotation Yrotation Xrotation
                }
                JOINT Jaw
                {
                  OFFSET 0.002637 0.475592 3.094941
                  CHANNELS 3 Zrotation Yrotation Xrotation
                }
                JOINT LeftEye
                {
                  OFFSET 3.206381 5.380205 7.586883
                  CHANNELS 3 Zrotation Yrotation Xrotation
                }
                JOINT RightEye
                {
                  OFFSET -3.22244 5.361869 7.558234
                  CHANNELS 3 Zrotation Yrotation Xrotation
                }
              }
            }
          }
          JOINT LeftShoulder
          {
            OFFSET 1.621652 23.237164 5.113413
            CHANNELS 3 Zrotation Yrotation Xrotation
            JOINT LeftArm
            {
              OFFSET 14.919846 2e-06 -5.502326
              CHANNELS 3 Zrotation Yrotation Xrotation
              JOINT LeftForeArm
              {
                OFFSET 28.739307 0.0 -0.002588
                CHANNELS 3 Zrotation Yrotation Xrotation
                JOINT LeftHand
                {
                  OFFSET 27.093981 -1e-06 0.002609
                  CHANNELS 3 Zrotation Yrotation Xrotation
                  JOINT LeftHandThumb1
                  {
                    OFFSET 2.276482 -1.392045 3.191413
                    CHANNELS 3 Zrotation Yrotation Xrotation
                    JOINT LeftHandThumb2
                    {
                      OFFSET 4.012836 -1.828127 1.641654
                      CHANNELS 3 Zrotation Yrotation Xrotation
                      JOINT LeftHandThumb3
                      {
                        OFFSET 2.798515 0.0 -3e-06
                        CHANNELS 3 Zrotation Yrotation Xrotation
                        JOINT LeftHandThumbEnd
                        {
                          OFFSET 3.180793 -4e-06 4e-06
                          CHANNELS 3 Zrotation Yrotation Xrotation
                        }
                      }
                    }
                  }
                  JOINT LeftHandIndex1
                  {
                    OFFSET 3.247555 -0.531998 2.296169
                    CHANNELS 3 Zrotation Yrotation Xrotation
                    JOINT LeftHandIndex2
                    {
                      OFFSET 6.364578 0.01206 0.1786
                      CHANNELS 3 Zrotation Yrotation Xrotation
                      JOINT LeftHandIndex3
                      {
                        OFFSET 3.662364 0.0 0.0
                        CHANNELS 3 Zrotation Yrotation Xrotation
                        JOINT LeftHandIndex4
                        {
                          OFFSET 2.329242 4e-06 4e-06
                          CHANNELS 3 Zrotation Yrotation Xrotation
                          JOINT LeftHandIndexEnd
                          {
                            OFFSET 2.759615 -0.180537 -0.113024
                            CHANNELS 3 Zrotation Yrotation Xrotation
                          }
                        }
                      }
                    }
                  }
                  JOINT LeftHandMiddle1
                  {
                    OFFSET 3.163495 0.240981 1.000332
                    CHANNELS 3 Zrotation Yrotation Xrotation
                    JOINT LeftHandMiddle2
                    {
                      OFFSET 6.19078 -0.259278 -1.002548
                      CHANNELS 3 Zrotation Yrotation Xrotation
                      JOINT LeftHandMiddle3
                      {
                        OFFSET 4.35652 -4e-06 -1e-06
                        CHANNELS 3 Zrotation Yrotation Xrotation
                        JOINT LeftHandMiddle4
                        {
                          OFFSET 2.996877 -8e-06 0.0
                          CHANNELS 3 Zrotation Yrotation Xrotation
                          JOINT LeftHandMiddleEnd
                          {
                            OFFSET 2.304287 -0.294569 -0.031741
                            CHANNELS 3 Zrotation Yrotation Xrotation
                          }
                        }
                      }
                    }
                  }
                  JOINT LeftHandRing1
                  {
                    OFFSET 2.882643 -0.053652 -0.322543
                    CHANNELS 3 Zrotation Yrotation Xrotation
                    JOINT LeftHandRing2
                    {
                      OFFSET 5.854541 -0.486202 -1.373841
                      CHANNELS 3 Zrotation Yrotation Xrotation
                      JOINT LeftHandRing3
                      {
                        OFFSET 4.350578 0.0 3e-06
                        CHANNELS 3 Zrotation Yrotation Xrotation
                        JOINT LeftHandRing4
                        {
                          OFFSET 2.651321 7e-06 2e-06
                          CHANNELS 3 Zrotation Yrotation Xrotation
                          JOINT LeftHandRingEnd
                          {
                            OFFSET 1.936105 0.077687 -7.1e-05
                            CHANNELS 3 Zrotation Yrotation Xrotation
                          }
                        }
                      }
                    }
                  }
                  JOINT LeftHandPinky1
                  {
                    OFFSET 2.8655 -0.310005 -1.600378
                    CHANNELS 3 Zrotation Yrotation Xrotation
                    JOINT LeftHandPinky2
                    {
                      OFFSET 5.087849 -1.331141 -1.77123
                      CHANNELS 3 Zrotation Yrotation Xrotation
                      JOINT LeftHandPinky3
                      {
                        OFFSET 3.070974 4e-06 0.0
                        CHANNELS 3 Zrotation Yrotation Xrotation
                        JOINT LeftHandPinky4
                        {
                          OFFSET 1.549672 0.0 1e-06
                          CHANNELS 3 Zrotation Yrotation Xrotation
                          JOINT LeftHandPinkyEnd
                          {
                            OFFSET 1.944893 -0.157802 0.057219
                            CHANNELS 3 Zrotation Yrotation Xrotation
                          }
                        }
                      }
                    }
                  }
                }
              }
            }
          }
          JOINT RightShoulder
          {
            OFFSET -1.380118 23.180309 5.214158
            CHANNELS 3 Zrotation Yrotation Xrotation
            JOINT RightArm
            {
              OFFSET -15.037196 1.2e-05 -5.545604
              CHANNELS 3 Zrotation Yrotation Xrotation
              JOINT RightForeArm
              {
                OFFSET -28.736639 2e-06 -0.002597
                CHANNELS 3 Zrotation Yrotation Xrotation
                JOINT RightHand
                {
                  OFFSET -27.133619 -0.0 0.002613
                  CHANNELS 3 Zrotation Yrotation Xrotation
                  JOINT RightHandThumb1
                  {
                    OFFSET -2.274032 -1.383988 3.163127
                    CHANNELS 3 Zrotation Yrotation Xrotation
                    JOINT RightHandThumb2
                    {
                      OFFSET -4.011429 -1.827466 1.640914
                      CHANNELS 3 Zrotation Yrotation Xrotation
                      JOINT RightHandThumb3
                      {
                        OFFSET -2.794935 -4e-06 -3e-06
                        CHANNELS 3 Zrotation Yrotation Xrotation
                        JOINT RightHandThumbEnd
                        {
                          OFFSET -3.183852 4e-06 1e-06
                          CHANNELS 3 Zrotation Yrotation Xrotation
                        }
                      }
                    }
                  }
                  JOINT RightHandIndex1
                  {
                    OFFSET -3.253266 -0.520057 2.282866
                    CHANNELS 3 Zrotation Yrotation Xrotation
                    JOINT RightHandIndex2
                    {
                      OFFSET -6.341917 0.012471 0.178266
                      CHANNELS 3 Zrotation Yrotation Xrotation
                      JOINT RightHandIndex3
                      {
                        OFFSET -3.654871 -8e-06 -0.0
                        CHANNELS 3 Zrotation Yrotation Xrotation
                        JOINT RightHandIndex4
                        {
                          OFFSET -2.327586 0.0 1e-06
                          CHANNELS 3 Zrotation Yrotation Xrotation
                          JOINT RightHandIndexEnd
                          {
                            OFFSET -2.76179 -0.180656 -0.113078
                            CHANNELS 3 Zrotation Yrotation Xrotation
                          }
                        }
                      }
                    }
                  }
                  JOINT RightHandMiddle1
                  {
                    OFFSET -3.168106 0.246593 1.00103
                    CHANNELS 3 Zrotation Yrotation Xrotation
                    JOINT RightHandMiddle2
                    {
                      OFFSET -6.180828 -0.258836 -1.000895
                      CHANNELS 3 Zrotation Yrotation Xrotation
                      JOINT RightHandMiddle3
                      {
                        OFFSET -4.348901 0.0 -0.0
                        CHANNELS 3 Zrotation Yrotation Xrotation
                        JOINT RightHandMiddle4
                        {
                          OFFSET -3.00024 -4e-06 -2e-06
                          CHANNELS 3 Zrotation Yrotation Xrotation
                          JOINT RightHandMiddleEnd
                          {
                            OFFSET -2.30252 -0.29437 -0.031706
                            CHANNELS 3 Zrotation Yrotation Xrotation
                          }
                        }
                      }
                    }
                  }
                  JOINT RightHandRing1
                  {
                    OFFSET -2.88569 -0.067952 -0.308858
                    CHANNELS 3 Zrotation Yrotation Xrotation
                    JOINT RightHandRing2
                    {
                      OFFSET -5.854198 -0.48613 -1.373731
                      CHANNELS 3 Zrotation Yrotation Xrotation
                      JOINT RightHandRing3
                      {
                        OFFSET -4.33881 -4e-06 -0.0
                        CHANNELS 3 Zrotation Yrotation Xrotation
                        JOINT RightHandRing4
                        {
                          OFFSET -2.654903 -4e-06 4e-06
                          CHANNELS 3 Zrotation Yrotation Xrotation
                          JOINT RightHandRingEnd
                          {
                            OFFSET -1.933568 0.077527 -5.2e-05
                            CHANNELS 3 Zrotation Yrotation Xrotation
                          }
                        }
                      }
                    }
                  }
                  JOINT RightHandPinky1
                  {
                    OFFSET -2.866425 -0.342796 -1.584145
                    CHANNELS 3 Zrotation Yrotation Xrotation
                    JOINT RightHandPinky2
                    {
                      OFFSET -5.091371 -1.332055 -1.772385
                      CHANNELS 3 Zrotation Yrotation Xrotation
                      JOINT RightHandPinky3
                      {
                        OFFSET -3.062664 -4e-06 1e-06
                        CHANNELS 3 Zrotation Yrotation Xrotation
                        JOINT RightHandPinky4
                        {
                          OFFSET -1.546529 4e-06 -2e-06
                          CHANNELS 3 Zrotation Yrotation Xrotation
                          JOINT RightHandPinkyEnd
                          {
                            OFFSET -1.945119 -0.157718 0.057211
                            CHANNELS 3 Zrotation Yrotation Xrotation
                          }
                        }
                      }
                    }
                  }
                }
              }
            }
          }
        }
      }
    }
    JOINT LeftLeg
    {
      OFFSET 10.043214 -8.434526 2.595655
      CHANNELS 3 Zrotation Yrotation Xrotation
      JOINT LeftShin
      {
        OFFSET -1e-06 -43.221752 -0.802913
        CHANNELS 3 Zrotation Yrotation Xrotation
        JOINT LeftFoot
        {
          OFFSET 1e-06 -42.155094 -3.481523
          CHANNELS 3 Zrotation Yrotation Xrotation
          JOINT LeftToeBase
          {
            OFFSET 0.0 -5.059472 13.231529
            CHANNELS 3 Zrotation Yrotation Xrotation
            JOINT LeftToeEnd
            {
              OFFSET -0.009607 -1.647619 6.513017
              CHANNELS 3 Zrotation Yrotation Xrotation
            }
          }
        }
      }
    }
    JOINT RightLeg
    {
      OFFSET -10.047278 -8.29526 2.620317
      CHANNELS 3 Zrotation Yrotation Xrotation
      JOINT RightShin
      {
        OFFSET 1e-06 -43.362206 -0.805556
        CHANNELS 3 Zrotation Yrotation Xrotation
        JOINT RightFoot
        {
          OFFSET 2e-06 -42.117393 -3.478398
          CHANNELS 3 Zrotation Yrotation Xrotation
          JOINT RightToeBase
          {
            OFFSET -0.0 -5.079609 13.284196
            CHANNELS 3 Zrotation Yrotation Xrotation
            JOINT RightToeEnd
            {
              OFFSET 0.009532 -1.634378 6.460591
              CHANNELS 3 Zrotation Yrotation Xrotation
            }
          }
        }
      }
    }
  }
}
MOTION
Frames: 4
Frame Time: 0.03333333333333333
0.0 0.0 0.0 0.0 -0.0 0.0 2.554244 94.494576 -3.221038 4.464918 -0.466261 6.369238 -1.758693 0.005591 -2.533788 -0.933383 1.580876 -5.692897 -2.388654 -1.13809 11.548954 -1.730618 3.248929 -2.244689 -0.879272 -0.247313 -3.678993 2.19374 -2.061332 -6.405041 7.7e-05 -2.2e-05 6e-06 0.027819 0.057278 -0.034045 0.734247 -3.686931 -10.643523 -0.689471 3.804814 -10.692698 -18.385004 -4.746775 15.202352 -62.78928 2.485932 -3.816085 0.378403 -24.756607 0.205424 5.665271 -0.492539 0.373548 -5.882109 9.861288 0.70259 -10.936877 -0.360576 7.156209 1e-06 8.774827 0.0 -16.406986 17.923191 5.884643 -1.844033 2.498505 -2.507278 -10.163605 4.678945 4.621111 -20.976034 -4e-06 3e-06 -21.226294 2.451697 -3.594 -1e-06 -5e-06 -0.0 -1.362682 2.240798 -0.746324 -21.334925 0.584909 3.008325 -13.82122 -3e-06 3e-06 -23.887182 -0.24908 -0.839481 -60.398537 2.413134 -0.871885 -0.294024 1.679687 0.833257 -14.218216 0.093214 1.300581 -34.212067 -0.287565 0.967173 -20.033226 0.964537 1.212845 -1e-06 0.0 0.0 -3.440389 0.788233 0.501656 -15.928198 -3.167311 2.999709 -6.33883 -1e-06 1e-06 -18.123457 3.648183 -4.905671 -4e-06 0.0 -3e-06 13.84938 11.366508 16.156145 55.032295 25.041822 21.207747 -0.484811 35.993523 -0.093069 -11.106737 5.785265 -9.338373 2.243542 -5.255039 -3.180157 14.282887 -0.826594 6.952503 -2e-06 -12.690605 -2e-06 15.600502 -17.850492 2.981334 1.665666 -1.955921 -2.878299 4.727797 -4.170588 4.993921 11.020525 3e-06 -1e-06 12.109052 -3.735715 -2.866786 1e-06 0.0 0.0 1.291986 -1.928551 -1.498089 14.800127 0.567468 3.865606 14.242571 -1.341736 -6.66066 19.631969 0.143926 -0.648246 49.772141 -0.883259 -6.191863 0.35303 -1.511151 -0.031939 20.222788 3.684311 2.316627 18.78727 5e-06 -3e-06 10.751627 -0.479867 1.397905 1e-06 2e-06 -1e-06 3.273807 0.305946 -0.580111 21.486811 11.830379 2.266131 8.162926 3e-06 -2e-06 18.39908 -3.798981 -4.940577 4e-06 0.0 -2e-06 -6.339108 0.207336 -37.821053 0.07774 -0.034055 25.387781 0.477958 9.194213 5.797597 1.63605 -1.970594 -2.987854 0.0 -0.0 2e-06 -5.501201 1.071427 8.920796 -0.155669 0.535831 28.614042 0.687405 2.701487 -0.09594 -1.577653 0.821341 -27.15085 -0.0 -0.0 -1e-06 
0.0 0.0 0.0 0.0 -0.0 0.0 3.104097 95.090553 1.189164 5.157743 -0.010629 5.645718 -2.469089 -0.15098 -2.35046 -1.115511 1.459228 -5.467435 -3.016721 -1.380553 11.278606 -0.566106 2.767692 -1.896779 -1.016291 -0.431833 -3.623726 2.421668 -2.224198 -6.410569 7.7e-05 -2.2e-05 6e-06 0.026377 0.082691 -0.040309 0.742333 -3.649867 -10.594054 -0.699605 3.815975 -10.638327 -17.620972 -5.359155 15.178577 -62.114498 1.579675 -2.913155 -0.027191 -23.912979 0.229679 5.418136 -0.470839 0.050102 -5.882109 9.861284 0.702591 -10.936877 -0.360576 7.156207 1e-06 8.774826 -2e-06 -16.613159 17.973841 5.686701 -1.844033 2.498504 -2.507278 -10.163604 4.678944 4.621109 -20.97603 -5e-06 3e-06 -21.226295 2.451695 -3.593999 -1e-06 -5e-06 -0.0 -1.362681 2.240798 -0.746323 -21.334923 0.584908 3.008325 -13.82122 -4e-06 3e-06 -23.887182 -0.24908 -0.83948 -60.290791 2.546174 -1.267655 -0.294025 1.679687 0.833255 -14.218215 0.093213 1.300581 -34.212067 -0.287566 0.967173 -20.033226 0.964536 1.212846 -1e-06 0.0 -0.0 -3.44039 0.788233 0.501656 -15.928192 -3.167311 2.999708 -6.338829 -2e-06 1e-06 -18.123453 3.648181 -4.90567 -4e-06 0.0 -2e-06 14.515052 10.769876 16.59115 56.479034 24.312012 22.636934 0.058695 31.505009 0.189636 -10.079803 5.025197 -9.187192 2.243543 -5.255038 -3.180159 14.282897 -0.826592 6.952505 -4e-06 -12.690609 1e-06 15.869395 -17.853901 2.861763 1.665667 -1.955921 -2.8783 4.7278 -4.170589 4.993927 11.020529 5e-06 -1e-06 12.109056 -3.735715 -2.866785 -0.0 0.0 -0.0 1.291985 -1.928549 -1.498089 14.800134 0.56747 3.865608 14.242577 -1.341734 -6.660663 19.631973 0.143929 -0.648244 49.924683 -0.638129 -6.208753 0.353029 -1.51115 -0.03194 20.222801 3.684313 2.316631 18.787283 9e-06 -2e-06 10.751632 -0.479869 1.397905 0.0 2e-06 -1e-06 3.273807 0.305949 -0.580113 21.486822 11.830381 2.266132 8.16293 4e-06 -0.0 18.399088 -3.798984 -4.940576 3e-06 -0.0 -1e-06 -7.239405 -0.722223 -34.812004 0.050925 -0.135573 27.253735 0.718116 9.529676 1.67977 1.591379 -2.035261 -1.98172 0.0 -0.0 2e-06 -6.968072 -0.250043 4.612038 -0.068879 0.636467 39.423592 2.012999 2.791911 10.435877 -1.599903 0.707609 -29.42808 -0.0 -0.0 -3e-06 
0.0 0.0 0.0 0.0 -0.0 0.0 3.690759 95.669418 5.633255 5.727746 -0.091655 4.780653 -3.056098 -0.224438 -2.042576 -1.265456 1.306274 -5.308868 -3.480557 -1.44185 11.217543 0.241377 2.535205 -1.683899 -1.05203 -0.647092 -3.578908 2.50367 -2.280441 -6.233436 7.7e-05 -2.2e-05 6e-06 0.025385 0.103456 -0.019756 0.740966 -3.623676 -10.57531 -0.700036 3.82895 -10.605748 -17.019888 -5.887326 15.190272 -61.147755 0.427796 -1.964609 -0.348851 -24.561066 0.240277 5.373908 -0.422354 -1.213761 -5.882108 9.861292 0.702591 -10.936877 -0.360575 7.156208 -0.0 8.774831 -0.0 -16.672476 18.069324 5.585475 -1.844032 2.498506 -2.507277 -10.163603 4.678948 4.621109 -20.97603 -2e-06 2e-06 -21.226297 2.451699 -3.594002 1e-06 -6e-06 -1e-06 -1.362682 2.240799 -0.746323 -21.334925 0.584911 3.008323 -13.821218 -2e-06 2e-06 -23.887182 -0.249078 -0.839485 -60.236141 2.515912 -1.504237 -0.294025 1.679688 0.833256 -14.218215 0.093216 1.300581 -34.212063 -0.287562 0.96717 -20.03322 0.964537 1.212842 -1e-06 -0.0 0.0 -3.440389 0.788234 0.501656 -15.928191 -3.167311 2.999709 -6.338828 -1e-06 1e-06 -18.123451 3.648186 -4.905674 -3e-06 0.0 -2e-06 15.086189 10.663592 16.941854 57.223881 23.471169 25.131912 0.352668 27.416195 0.262723 -7.964537 3.785407 -7.607492 2.243545 -5.255037 -3.180159 14.282898 -0.826596 6.952502 -2e-06 -12.690607 0.0 16.169613 -17.770741 2.654246 1.665668 -1.955922 -2.878299 4.727803 -4.17059 4.993925 11.020535 1e-06 -4e-06 12.109061 -3.735719 -2.866786 0.0 0.0 -1e-06 1.291988 -1.92855 -1.498091 14.800138 0.567466 3.865608 14.242582 -1.341738 -6.660665 19.631981 0.143924 -0.648252 49.895393 -0.53582 -6.287903 0.35303 -1.511151 -0.03194 20.222803 3.684309 2.316625 18.787285 4e-06 -7e-06 10.751634 -0.479868 1.397904 0.0 2e-06 1e-06 3.273808 0.305945 -0.580111 21.486828 11.830378 2.266129 8.16293 1e-06 -2e-06 18.399097 -3.798987 -4.940586 3e-06 -1e-06 -1e-06 -8.101401 -1.258189 -31.131672 0.045775 -0.098267 28.092323 0.82658 10.040969 -1.969563 1.589685 -2.088097 -1.804718 -0.0 -0.0 2e-06 -8.219908 -0.442253 -1.169864 0.063034 0.749832 50.694733 5.479913 1.631736 22.458225 -1.325543 0.758465 -15.103356 -0.0 0.0 0.0 
0.0 0.0 0.0 0.0 -0.0 0.0 4.173229 96.338501 9.900972 6.159241 -0.687094 3.975376 -3.554741 -0.245883 -1.759127 -1.404758 1.133543 -5.256223 -3.734514 -1.463056 11.307196 0.598004 2.495926 -1.304966 -0.975314 -0.670421 -3.553576 2.638631 -2.277864 -6.372466 7.7e-05 -2.3e-05 6e-06 0.023118 0.099337 0.006298 0.742359 -3.623852 -10.57109 -0.705942 3.820291 -10.589981 -16.672321 -6.116055 15.001324 -59.86797 -0.760502 -1.117719 -0.456178 -26.362173 0.241506 6.060179 -0.856885 -3.18867 -5.88211 9.86129 0.70259 -10.936878 -0.360575 7.156209 1e-06 8.774831 -1e-06 -16.526999 18.246269 5.65424 -1.844033 2.498507 -2.507279 -10.163604 4.678948 4.62111 -20.976034 -4e-06 1e-06 -21.226295 2.451698 -3.594001 1e-06 -6e-06 -1e-06 -1.362682 2.240799 -0.746324 -21.334927 0.584909 3.008324 -13.82122 -3e-06 2e-06 -23.887184 -0.249079 -0.839483 -60.284119 2.442272 -1.565413 -0.294025 1.679688 0.833256 -14.218217 0.093215 1.300581 -34.212067 -0.287565 0.96717 -20.033226 0.964537 1.212844 -1e-06 -1e-06 -1e-06 -3.440391 0.788233 0.501657 -15.928198 -3.167312 2.999709 -6.33883 -2e-06 1e-06 -18.123457 3.648185 -4.905672 -4e-06 0.0 -2e-06 15.5534 10.753916 17.149412 57.318436 22.664202 28.657425 0.675148 24.152493 0.280361 -5.176858 2.513882 -4.899928 2.243543 -5.25504 -3.180159 14.2829 -0.826596 6.952504 -2e-06 -12.690613 1e-06 16.479424 -17.716293 2.401841 1.665667 -1.955922 -2.8783 4.727801 -4.170591 4.993926 11.020534 3e-06 0.0 12.109059 -3.735718 -2.866787 0.0 0.0 1e-06 1.291988 -1.92855 -1.49809 14.800136 0.567469 3.865608 14.242581 -1.341738 -6.660664 19.631981 0.143927 -0.648246 49.965218 -0.56313 -6.424632 0.353029 -1.511151 -0.03194 20.222803 3.684313 2.316631 18.787287 6e-06 -2e-06 10.751634 -0.479867 1.397906 1e-06 1e-06 -0.0 3.273809 0.305947 -0.58011 21.486828 11.83038 2.266131 8.162933 3e-06 -3e-06 18.399094 -3.798986 -4.94058 4e-06 -1e-06 -0.0 -8.860709 -1.411785 -26.796137 0.113269 0.029357 27.280794 0.852738 10.699612 -4.787214 1.57651 -2.092078 -1.464324 0.0 0.0 2e-06 -8.912703 0.088898 -7.592191 0.121151 0.631048 60.758476 6.148223 0.424322 25.653162 -1.301221 0.883819 -6.027946 0.0 0.0 -1e-06 
